<svg fill="#348F50" xmlns="http://www.w3.org/2000/svg" xmlns:xlink="http://www.w3.org/1999/xlink" version="1.1" x="0px" y="0px" viewBox="0 0 100 125" style="enable-background:new 0 0 100 100;" xml:space="preserve"><g><path d="M57.8,45c0,7.1-5.8,12.8-12.8,12.8c-7.1,0-12.8-5.8-12.8-12.8c0-7.1,5.8-12.8,12.8-12.8C52.1,32.2,57.8,37.9,57.8,45z    M85,27v46c0,6.6-5.4,12-12,12H27c-6.6,0-12-5.4-12-12V27c0-6.6,5.4-12,12-12h46C79.6,15,85,20.4,85,27z M71.4,68.6L58.3,55.5   C60.6,52.6,62,49,62,45c0-9.4-7.6-17-17-17c-9.4,0-17,7.6-17,17c0,9.4,7.6,17,17,17c4,0,7.6-1.4,10.5-3.7l13.1,13.1   c0.8,0.8,2,0.8,2.8,0C72.2,70.6,72.2,69.4,71.4,68.6z"/></g></svg>